<svg xmlns="http://www.w3.org/2000/svg" width="128" height="128" viewBox="0 0 128 128" fill="none">
  <rect x="8" y="8" width="112" height="112" rx="24" fill="#0b172b" />
  <rect x="9.5" y="9.5" width="109" height="109" rx="22.5" stroke="#777e8c" stroke-opacity="0.42" stroke-width="3" />
  <circle cx="93" cy="35" r="10" fill="#e40117" fill-opacity="0.22" /><path d="M26 112L44 112L35 97L26 112Z" fill="#3f4956" fill-opacity="0.34" /><path d="M43 112L65 112L54 93L43 112Z" fill="#e40117" fill-opacity="0.32" /><path d="M63 112L85 112L74 94L63 112Z" fill="#d6d7dc" fill-opacity="0.22" /><path d="M82 112L100 112L91 97L82 112Z" fill="#3f4956" fill-opacity="0.34" /><path d="M63 30C45 30 31 44 31 62C31 80 45 94 63 94C76 94 88 86 93 74" stroke="#21482b" stroke-width="10" stroke-linecap="round" />
  <path d="M63 26C45 26 31 40 31 58C31 76 45 90 63 90C76 90 88 82 93 70" stroke="#FFFFFF" stroke-width="10" stroke-linecap="round" />
  <path d="M84 42H98V56" stroke="#21482b" stroke-width="10" stroke-linecap="round" stroke-linejoin="round" />
  <path d="M82 40H96V54" stroke="#FFFFFF" stroke-width="10" stroke-linecap="round" stroke-linejoin="round" />
  <path d="M52 46V62L66 70" stroke="#21482b" stroke-width="8" stroke-linecap="round" stroke-linejoin="round" />
  <path d="M50 44V60L64 68" stroke="#FFFFFF" stroke-width="8" stroke-linecap="round" stroke-linejoin="round" />
</svg>