<svg xmlns="http://www.w3.org/2000/svg" width="128" height="128" viewBox="0 0 128 128" fill="none" role="img" aria-label="docx-assistant">
  <rect x="8" y="8" width="112" height="112" rx="24" fill="#0b172b" />
  <rect x="9.5" y="9.5" width="109" height="109" rx="22.5" stroke="#777e8c" stroke-opacity="0.42" stroke-width="3" />
  <circle cx="93" cy="35" r="10" fill="#e40117" fill-opacity="0.22" /><path d="M26 112L44 112L35 97L26 112Z" fill="#3f4956" fill-opacity="0.34" /><path d="M43 112L65 112L54 93L43 112Z" fill="#e40117" fill-opacity="0.32" /><path d="M63 112L85 112L74 94L63 112Z" fill="#d6d7dc" fill-opacity="0.22" /><path d="M82 112L100 112L91 97L82 112Z" fill="#3f4956" fill-opacity="0.34" /><path d="M6,2A2,2 0 0,0 4,4V20A2,2 0 0,0 6,22H18A2,2 0 0,0 20,20V8L14,2H6M6,4H13V9H18V20H6V4M8,12V14H16V12H8M8,16V18H13V16H8Z" fill="#333d4b" fill-opacity="0.55" transform="translate(34 34) scale(2.5)" />
  <path d="M6,2A2,2 0 0,0 4,4V20A2,2 0 0,0 6,22H18A2,2 0 0,0 20,20V8L14,2H6M6,4H13V9H18V20H6V4M8,12V14H16V12H8M8,16V18H13V16H8Z" fill="#fdfdfd" transform="translate(32 32) scale(2.5)" />
</svg>