<svg xmlns="http://www.w3.org/2000/svg" width="128" height="128" viewBox="0 0 128 128" fill="none">
  <rect x="8" y="8" width="112" height="112" rx="24" fill="#0b172b"/>
  <rect x="9.5" y="9.5" width="109" height="109" rx="22.5" stroke="#777e8c" stroke-opacity="0.42" stroke-width="3"/>
  <circle cx="93" cy="35" r="10" fill="#e40117" fill-opacity="0.22"/>
  <path d="M26 112L44 112L35 97L26 112Z" fill="#3f4956" fill-opacity="0.34"/>
  <path d="M43 112L65 112L54 93L43 112Z" fill="#e40117" fill-opacity="0.32"/>
  <path d="M63 112L85 112L74 94L63 112Z" fill="#d6d7dc" fill-opacity="0.22"/>
  <path d="M82 112L100 112L91 97L82 112Z" fill="#3f4956" fill-opacity="0.34"/>
  <path d="M9.5 3C5.9 3 3 5.9 3 9.5S5.9 16 9.5 16C11.1 16 12.6 15.4 13.7 14.4L18.3 19L20 17.3L15.4 12.7C16.4 11.6 17 10.1 17 8.5C17 5.5 14.5 3 11.5 3H9.5M9.5 5H11.5C13.4 5 15 6.6 15 8.5C15 10.4 13.4 12 11.5 12H9.5C7 12 5 10 5 7.5C5 6.6 5.3 5.7 5.8 5H9.5M7 7V9H13V7H7Z" fill="#333d4b" transform="translate(35 35) scale(2.5)"/>
  <path d="M9.5 3C5.9 3 3 5.9 3 9.5S5.9 16 9.5 16C11.1 16 12.6 15.4 13.7 14.4L18.3 19L20 17.3L15.4 12.7C16.4 11.6 17 10.1 17 8.5C17 5.5 14.5 3 11.5 3H9.5M9.5 5H11.5C13.4 5 15 6.6 15 8.5C15 10.4 13.4 12 11.5 12H9.5C7 12 5 10 5 7.5C5 6.6 5.3 5.7 5.8 5H9.5M7 7V9H13V7H7Z" fill="#fdfdfd" transform="translate(32 32) scale(2.5)"/>
</svg>
